<?xml version="1.0" encoding="utf-8"?>
<!-- Generator: Adobe Illustrator 23.0.0, SVG Export Plug-In . SVG Version: 6.00 Build 0)  -->
<svg version="1.1" id="Layer_1" xmlns="http://www.w3.org/2000/svg" xmlns:xlink="http://www.w3.org/1999/xlink" x="0px" y="0px"
	 viewBox="0 0 30 30" style="enable-background:new 0 0 30 30;" xml:space="preserve">
<style type="text/css">
	.st0{fill:#357491;}
</style>
<path id="path22" class="st0" d="M14.86,21.58c-3.57,0-6.47-2.96-6.37-6.56c0.09-3.32,2.86-6.09,6.18-6.18
	c3.6-0.1,6.55,2.79,6.55,6.37C21.23,18.72,18.37,21.58,14.86,21.58 M14.86,7.94c-4.1,0-7.42,3.42-7.27,7.56
	c0.14,3.74,3.24,6.83,6.97,6.98c4.14,0.16,7.56-3.16,7.56-7.27C22.13,11.2,18.87,7.94,14.86,7.94"/>
<path id="path26" class="st0" d="M14.86,5.8c0.25,0,0.45-0.2,0.45-0.45V1.76c0-0.25-0.2-0.45-0.45-0.45c-0.25,0-0.45,0.2-0.45,0.45
	v3.59C14.41,5.6,14.61,5.8,14.86,5.8"/>
<path id="path30" class="st0" d="M14.86,24.51c-0.25,0-0.45,0.2-0.45,0.45v3.59c0,0.25,0.2,0.45,0.45,0.45
	c0.25,0,0.45-0.2,0.45-0.45v-3.59C15.31,24.71,15.11,24.51,14.86,24.51"/>
<path id="path34" class="st0" d="M19.78,7.21c0.07,0.05,0.16,0.07,0.24,0.07c0.15,0,0.3-0.08,0.38-0.21L22.29,4
	c0.13-0.21,0.06-0.49-0.15-0.62c-0.21-0.13-0.49-0.07-0.62,0.15l-1.89,3.06C19.5,6.8,19.57,7.07,19.78,7.21"/>
<path id="path38" class="st0" d="M9.93,23.11c-0.21-0.13-0.49-0.07-0.62,0.15l-1.89,3.06c-0.13,0.21-0.06,0.49,0.15,0.62
	c0.07,0.05,0.16,0.07,0.24,0.07c0.15,0,0.3-0.08,0.38-0.21l1.89-3.06C10.21,23.51,10.15,23.24,9.93,23.11"/>
<path id="path42" class="st0" d="M23.5,10.99c0.07,0,0.14-0.02,0.21-0.05l3.17-1.7c0.22-0.12,0.3-0.39,0.18-0.61
	c-0.12-0.22-0.39-0.3-0.61-0.18l-3.17,1.7c-0.22,0.12-0.3,0.39-0.18,0.61C23.19,10.91,23.34,10.99,23.5,10.99"/>
<path id="path46" class="st0" d="M5.99,19.4l-3.17,1.7c-0.22,0.12-0.3,0.39-0.18,0.61c0.08,0.15,0.24,0.24,0.4,0.24
	c0.07,0,0.14-0.02,0.21-0.05l3.17-1.7c0.22-0.12,0.3-0.39,0.19-0.61C6.49,19.37,6.21,19.28,5.99,19.4"/>
<path id="path50" class="st0" d="M28.26,14.68L28.26,14.68l-3.6,0.01c-0.25,0-0.45,0.2-0.45,0.45c0,0.25,0.2,0.45,0.45,0.45h0
	l3.6-0.01c0.25,0,0.45-0.2,0.45-0.45C28.71,14.88,28.51,14.68,28.26,14.68"/>
<path id="path54" class="st0" d="M5.5,15.2c0-0.25-0.2-0.45-0.45-0.45h0l-3.6,0.01C1.2,14.76,1,14.96,1,15.21
	c0,0.25,0.2,0.45,0.45,0.45h0l3.6-0.01C5.3,15.65,5.5,15.44,5.5,15.2"/>
<path id="path58" class="st0" d="M26.84,21.19l-3.16-1.73c-0.22-0.12-0.49-0.04-0.61,0.18c-0.12,0.22-0.04,0.49,0.18,0.61l3.16,1.72
	c0.07,0.04,0.14,0.06,0.22,0.06c0.16,0,0.31-0.08,0.4-0.23C27.14,21.58,27.06,21.31,26.84,21.19"/>
<path id="path62" class="st0" d="M6.47,10.05L3.31,8.33C3.09,8.21,2.82,8.29,2.7,8.51C2.58,8.72,2.66,9,2.88,9.12l3.16,1.73
	c0.07,0.04,0.14,0.06,0.22,0.06c0.16,0,0.31-0.08,0.4-0.23C6.76,10.45,6.68,10.17,6.47,10.05"/>
<path id="path66" class="st0" d="M20.44,23.23c-0.13-0.21-0.41-0.27-0.62-0.14c-0.21,0.13-0.27,0.41-0.14,0.62l1.91,3.05
	c0.08,0.14,0.23,0.21,0.38,0.21c0.08,0,0.16-0.02,0.24-0.07c0.21-0.13,0.27-0.41,0.14-0.62L20.44,23.23L20.44,23.23z"/>
<path id="path70" class="st0" d="M9.28,7.07c0.08,0.14,0.23,0.21,0.38,0.21c0.08,0,0.16-0.02,0.24-0.07
	c0.21-0.13,0.27-0.41,0.14-0.62L8.13,3.54C8,3.33,7.72,3.27,7.51,3.4C7.3,3.53,7.24,3.81,7.37,4.02C7.37,4.02,9.28,7.07,9.28,7.07z"
	/>
</svg>
