<?xml version="1.0" encoding="utf-8"?>
<!-- Generator: Adobe Illustrator 23.0.0, SVG Export Plug-In . SVG Version: 6.00 Build 0)  -->
<svg version="1.1" id="Layer_1" xmlns="http://www.w3.org/2000/svg" xmlns:xlink="http://www.w3.org/1999/xlink" x="0px" y="0px"
	 viewBox="0 0 30 30" style="enable-background:new 0 0 30 30;" xml:space="preserve">
<style type="text/css">
	.st0{fill:#357491;}
</style>
<path id="path274" class="st0" d="M10.54,21.33h13.43c0.09,0,0.18,0,0.27,0.01v-0.01c2.19,0,3.98-1.78,3.98-3.98
	s-1.78-3.98-3.98-3.98c-0.31,0-0.63,0.04-0.96,0.12c-0.1,0.03-0.22,0.01-0.31-0.05c-0.09-0.06-0.15-0.16-0.17-0.27
	c-0.45-2.83-2.85-4.89-5.71-4.89c-3.19,0-5.79,2.6-5.79,5.79c0,0.16,0.01,0.31,0.02,0.47c0.01,0.12-0.03,0.23-0.12,0.31
	c-0.08,0.08-0.2,0.12-0.31,0.11c-0.12-0.01-0.23-0.02-0.35-0.02c-1.76,0-3.19,1.43-3.19,3.19S8.78,21.33,10.54,21.33 M10.52,14.16
	c0-0.03,0-0.06,0-0.09c0-3.62,2.95-6.57,6.57-6.57c3.11,0,5.75,2.14,6.41,5.14c0.25-0.04,0.5-0.06,0.74-0.06
	c2.62,0,4.76,2.13,4.76,4.76c0,2.62-2.14,4.76-4.76,4.76h-3.55H10.54c-2.19,0-3.97-1.78-3.97-3.97
	C6.57,15.95,8.34,14.18,10.52,14.16"/>
<path id="path278" class="st0" d="M5.76,9.96c0.24,0,0.49,0.02,0.74,0.06c0.66-3,3.29-5.14,6.41-5.14c1.36,0,2.66,0.41,3.77,1.19
	c0.18,0.12,0.22,0.37,0.1,0.54c-0.12,0.18-0.37,0.22-0.54,0.1c-0.97-0.68-2.12-1.04-3.32-1.04c-2.86,0-5.27,2.05-5.71,4.89
	c-0.02,0.11-0.08,0.2-0.17,0.26c-0.09,0.06-0.2,0.08-0.31,0.05c-0.33-0.08-0.65-0.12-0.96-0.12c-2.19,0-3.98,1.78-3.98,3.98
	c0,2.05,1.53,3.75,3.56,3.96c0.21,0.02,0.37,0.21,0.35,0.43c-0.02,0.2-0.19,0.35-0.39,0.35c-0.01,0-0.03,0-0.04,0
	C2.83,19.2,1,17.17,1,14.72C1,12.1,3.14,9.96,5.76,9.96"/>
</svg>
