<?xml version="1.0" encoding="utf-8"?>
<!-- Generator: Adobe Illustrator 23.0.0, SVG Export Plug-In . SVG Version: 6.00 Build 0)  -->
<svg version="1.1" id="Layer_1" xmlns="http://www.w3.org/2000/svg" xmlns:xlink="http://www.w3.org/1999/xlink" x="0px" y="0px"
	 viewBox="0 0 30 30" style="enable-background:new 0 0 30 30;" xml:space="preserve">
<style type="text/css">
	.st0{fill:#357491;}
</style>
<path id="path4117" class="st0" d="M1.56,11.88c-0.76,2.5-0.78,5.22,0.11,7.87c2.13,6.31,9.11,10.12,15.52,7.91
	c5.66-1.95,9.07-8.25,7.03-14.01c-1.78-5.01-7.39-8.03-12.5-6.15c-4.36,1.6-6.96,6.54-5.25,11c1.43,3.71,5.69,5.92,9.5,4.37
	c3.05-1.25,4.87-4.84,3.46-8c-1.07-2.4-4-3.83-6.5-2.56c-0.88,0.45-1.57,1.22-1.92,2.13c-0.34,0.91-0.33,1.98,0.25,2.89
	c0.36,0.55,0.94,0.96,1.6,1.14c0.66,0.18,1.47,0.08,2.01-0.52c0.33-0.36,0.4-0.77,0.35-1.23c-0.02-0.23-0.08-0.48-0.32-0.69
	s-0.62-0.28-0.92-0.19l0.29,1.08c0.06-0.02-0.05,0-0.12-0.06c-0.06-0.06-0.05-0.09-0.04-0.04c0.01,0.11-0.11,0.42-0.07,0.38
	c-0.25,0.27-0.54,0.31-0.9,0.21s-0.74-0.4-0.92-0.7c-0.38-0.6-0.39-1.25-0.15-1.89c0.24-0.64,0.75-1.22,1.36-1.54
	c1.87-0.95,4.14,0.18,4.97,2.04c1.13,2.53-0.37,5.47-2.87,6.49c-3.19,1.31-6.82-0.59-8.03-3.74c-1.48-3.84,0.79-8.15,4.59-9.54
	c4.5-1.65,9.5,1.03,11.07,5.48c1.83,5.15-1.24,10.83-6.33,12.59c-5.8,2-12.16-1.47-14.1-7.21c-2.18-6.45,1.68-13.5,8.06-15.61
	c7.11-2.35,14.83,1.88,17.12,8.92L29,12.37C26.52,4.75,18.17,0.17,10.46,2.72C6.11,4.16,2.82,7.7,1.56,11.88L1.56,11.88z"/>
</svg>
