<?xml version="1.0" encoding="utf-8"?>
<!-- Generator: Adobe Illustrator 23.0.0, SVG Export Plug-In . SVG Version: 6.00 Build 0)  -->
<svg version="1.1" id="Layer_1" xmlns="http://www.w3.org/2000/svg" xmlns:xlink="http://www.w3.org/1999/xlink" x="0px" y="0px"
	 viewBox="0 0 30 30" style="enable-background:new 0 0 30 30;" xml:space="preserve">
<style type="text/css">
	.st0{fill:#357491;}
</style>
<path id="path3137" class="st0" d="M12.75,23.19h11.82c0.08,0,0.16,0,0.24,0.01v-0.01c1.93,0,3.5-1.57,3.5-3.5s-1.57-3.5-3.5-3.5
	c-0.27,0-0.56,0.04-0.84,0.11c-0.09,0.02-0.19,0.01-0.27-0.05c-0.08-0.05-0.13-0.14-0.15-0.23c-0.39-2.49-2.5-4.3-5.03-4.3
	c-2.81,0-5.1,2.29-5.1,5.1c0,0.14,0.01,0.27,0.02,0.41c0.01,0.1-0.03,0.2-0.1,0.27c-0.07,0.07-0.18,0.11-0.28,0.1
	c-0.1-0.01-0.21-0.02-0.31-0.02c-1.55,0-2.81,1.26-2.81,2.81C9.95,21.93,11.21,23.19,12.75,23.19 M12.74,16.88c0-0.02,0-0.05,0-0.07
	c0-3.19,2.59-5.78,5.78-5.78c2.74,0,5.06,1.88,5.64,4.53c0.22-0.04,0.44-0.05,0.65-0.05c2.31,0,4.19,1.88,4.19,4.19
	s-1.88,4.19-4.19,4.19h-3.12h-8.93c-1.93,0-3.5-1.57-3.5-3.5C9.26,18.46,10.82,16.89,12.74,16.88"/>
<path id="path3171" class="st0" d="M7.43,22.05c-2.15-0.51-4.02-1.83-5.18-3.71c-2.42-3.91-1.21-9.06,2.7-11.48
	C8.86,4.44,14,5.64,16.42,9.55c0.35,0.56-0.44,0.82-0.68,0.43C13.55,6.44,8.9,5.36,5.37,7.55C1.83,9.74,0.75,14.37,2.94,17.9
	c1.05,1.7,2.73,2.91,4.67,3.37C8.09,21.39,8,22.19,7.43,22.05L7.43,22.05z"/>
</svg>
