<?xml version="1.0" encoding="utf-8"?>
<!-- Generator: Adobe Illustrator 23.0.0, SVG Export Plug-In . SVG Version: 6.00 Build 0)  -->
<svg version="1.1" id="Layer_1" xmlns="http://www.w3.org/2000/svg" xmlns:xlink="http://www.w3.org/1999/xlink" x="0px" y="0px"
	 viewBox="0 0 30 30" style="enable-background:new 0 0 30 30;" xml:space="preserve">
<style type="text/css">
	.st0{fill:#357491;}
</style>
<path id="path74" class="st0" d="M12.86,24.87l11.74,0c0.08,0,0.16,0,0.24,0.01v-0.01c1.92,0,3.48-1.56,3.48-3.48
	s-1.56-3.48-3.48-3.48c-0.27,0-0.55,0.03-0.84,0.11c-0.09,0.02-0.19,0.01-0.27-0.05c-0.08-0.05-0.13-0.14-0.15-0.23
	c-0.39-2.47-2.49-4.27-4.99-4.27c-2.79,0-5.06,2.27-5.06,5.06c0,0.14,0.01,0.27,0.02,0.41c0.01,0.1-0.03,0.2-0.1,0.27
	s-0.17,0.1-0.27,0.1c-0.1-0.01-0.2-0.02-0.31-0.02c-1.54,0-2.79,1.25-2.79,2.79C10.07,23.62,11.33,24.87,12.86,24.87 M12.85,18.61
	c0-0.02,0-0.05,0-0.07c0-3.17,2.58-5.74,5.74-5.74c2.72,0,5.02,1.87,5.6,4.5c0.22-0.04,0.44-0.05,0.65-0.05
	c2.29,0,4.16,1.87,4.16,4.16c0,2.29-1.87,4.16-4.16,4.16h0c-0.05,0-1.36,0-3.1,0l-8.87,0c-1.91,0-3.47-1.56-3.47-3.47
	C9.39,20.17,10.94,18.62,12.85,18.61"/>
<path id="path78" class="st0" d="M6.07,15.16c0-3.04,2.48-5.52,5.52-5.52c1.86,0,3.47,0.8,4.5,2.35c0.1,0.16,0.06,0.37-0.1,0.47
	c-0.16,0.1-0.37,0.06-0.47-0.1c-0.9-1.36-2.3-2.04-3.93-2.04c-2.67,0-4.83,2.17-4.83,4.83c0,1.65,0.83,3.17,2.22,4.06
	c0.16,0.1,0.2,0.31,0.1,0.47C9,19.8,8.89,19.85,8.78,19.85c-0.06,0-0.13-0.02-0.19-0.05C7.01,18.78,6.07,17.04,6.07,15.16"/>
<path id="path82" class="st0" d="M11.51,7.95c-0.19,0-0.34-0.15-0.34-0.34V4.88c0-0.19,0.15-0.34,0.34-0.34
	c0.19,0,0.34,0.15,0.34,0.34v2.73C11.85,7.8,11.7,7.95,11.51,7.95"/>
<path id="path86" class="st0" d="M7.77,9.02C7.72,9.05,7.66,9.07,7.6,9.07c-0.11,0-0.23-0.06-0.29-0.16L5.87,6.59
	c-0.1-0.16-0.05-0.37,0.11-0.47c0.16-0.1,0.37-0.05,0.47,0.11l1.44,2.32C7.99,8.71,7.94,8.92,7.77,9.02"/>
<path id="path90" class="st0" d="M4.95,11.89c-0.05,0-0.11-0.01-0.16-0.04l-2.41-1.29c-0.17-0.09-0.23-0.3-0.14-0.46
	c0.09-0.17,0.3-0.23,0.46-0.14l2.41,1.29c0.17,0.09,0.23,0.3,0.14,0.46C5.19,11.82,5.07,11.89,4.95,11.89"/>
<path id="path94" class="st0" d="M1.34,14.69L1.34,14.69l2.73,0.01c0.19,0,0.34,0.15,0.34,0.34c0,0.19-0.15,0.34-0.34,0.34h0
	l-2.73-0.01C1.15,15.37,1,15.22,1,15.03C1,14.84,1.15,14.69,1.34,14.69"/>
<path id="path98" class="st0" d="M2.42,19.63l2.4-1.31c0.17-0.09,0.37-0.03,0.46,0.14c0.09,0.17,0.03,0.37-0.14,0.46l-2.4,1.31
	c-0.05,0.03-0.11,0.04-0.16,0.04c-0.12,0-0.24-0.06-0.3-0.18C2.19,19.92,2.25,19.72,2.42,19.63"/>
<path id="path102" class="st0" d="M20.6,10.47l-2.4,1.31c-0.05,0.03-0.11,0.04-0.16,0.04c-0.12,0-0.24-0.06-0.3-0.18
	c-0.09-0.17-0.03-0.37,0.14-0.46l2.4-1.31c0.17-0.09,0.37-0.03,0.46,0.14C20.83,10.17,20.77,10.37,20.6,10.47"/>
<path id="path106" class="st0" d="M7.27,21.18c0.1-0.16,0.31-0.21,0.47-0.11c0.16,0.1,0.21,0.31,0.11,0.47l-1.45,2.32
	c-0.06,0.1-0.18,0.16-0.29,0.16c-0.06,0-0.12-0.02-0.18-0.05c-0.16-0.1-0.21-0.31-0.11-0.47L7.27,21.18L7.27,21.18z"/>
<path id="path110" class="st0" d="M15.75,8.92c-0.06,0.1-0.18,0.16-0.29,0.16c-0.06,0-0.12-0.02-0.18-0.05
	c-0.16-0.1-0.21-0.31-0.11-0.47l1.45-2.31c0.1-0.16,0.31-0.21,0.47-0.11c0.16,0.1,0.21,0.31,0.11,0.47L15.75,8.92L15.75,8.92z"/>
</svg>
