<?xml version="1.0" encoding="utf-8"?>
<!-- Generator: Adobe Illustrator 23.0.0, SVG Export Plug-In . SVG Version: 6.00 Build 0)  -->
<svg version="1.1" id="Layer_1" xmlns="http://www.w3.org/2000/svg" xmlns:xlink="http://www.w3.org/1999/xlink" x="0px" y="0px"
	 viewBox="0 0 30 30" style="enable-background:new 0 0 30 30;" xml:space="preserve">
<style type="text/css">
	.st0{fill:#357491;}
</style>
<path id="path218" class="st0" d="M10.54,18.36h13.43c0.09,0,0.18,0,0.27,0.01v-0.01c2.19,0,3.98-1.78,3.98-3.98
	c0-2.19-1.78-3.98-3.98-3.98c-0.31,0-0.63,0.04-0.96,0.12c-0.11,0.03-0.22,0.01-0.31-0.05c-0.09-0.06-0.15-0.16-0.17-0.26
	c-0.44-2.83-2.85-4.89-5.71-4.89c-3.19,0-5.79,2.6-5.79,5.79c0,0.16,0.01,0.31,0.02,0.47c0.01,0.12-0.03,0.23-0.12,0.31
	c-0.08,0.08-0.2,0.12-0.31,0.11c-0.12-0.01-0.23-0.02-0.35-0.02c-1.76,0-3.19,1.43-3.19,3.19C7.35,16.93,8.78,18.36,10.54,18.36
	 M10.52,11.2c0-0.03,0-0.06,0-0.08c0-3.62,2.95-6.57,6.57-6.57c3.12,0,5.75,2.14,6.41,5.14c0.25-0.04,0.5-0.06,0.74-0.06
	c2.62,0,4.76,2.13,4.76,4.76c0,2.62-2.13,4.76-4.76,4.76h-3.55H10.54c-2.19,0-3.97-1.78-3.97-3.97C6.57,12.99,8.34,11.21,10.52,11.2
	"/>
<path id="path222" class="st0" d="M5.76,7C6,7,6.25,7.02,6.5,7.06c0.66-3,3.29-5.14,6.41-5.14c1.36,0,2.66,0.41,3.77,1.19
	c0.18,0.12,0.22,0.37,0.1,0.54c-0.12,0.18-0.37,0.22-0.54,0.1c-0.97-0.68-2.12-1.04-3.32-1.04c-2.86,0-5.27,2.05-5.71,4.89
	c-0.02,0.11-0.08,0.2-0.17,0.26C6.94,7.9,6.83,7.92,6.72,7.9C6.39,7.82,6.07,7.78,5.76,7.78c-2.19,0-3.98,1.78-3.98,3.98
	c0,2.05,1.53,3.75,3.56,3.96c0.22,0.02,0.37,0.21,0.35,0.43c-0.02,0.2-0.19,0.35-0.39,0.35c-0.01,0-0.03,0-0.04,0
	C2.83,16.24,1,14.2,1,11.76C1,9.13,3.13,7,5.76,7"/>
<path id="path298" class="st0" d="M12.46,20.92c-0.19-0.09-0.41-0.02-0.51,0.17L9.4,26.2c-0.09,0.19-0.02,0.41,0.17,0.51
	c0.05,0.03,0.11,0.04,0.17,0.04c0.14,0,0.27-0.08,0.34-0.21l2.55-5.11C12.72,21.24,12.65,21.01,12.46,20.92"/>
<path id="path302" class="st0" d="M16.72,20.92c-0.19-0.09-0.42-0.02-0.51,0.17l-2.56,5.11c-0.09,0.19-0.02,0.41,0.17,0.51
	c0.05,0.03,0.11,0.04,0.17,0.04c0.14,0,0.27-0.08,0.34-0.21l2.56-5.11C16.99,21.24,16.91,21.01,16.72,20.92"/>
<path id="path306" class="st0" d="M20.98,20.92c-0.19-0.09-0.41-0.02-0.51,0.17l-2.56,5.11c-0.09,0.19-0.02,0.41,0.17,0.51
	c0.05,0.03,0.11,0.04,0.17,0.04c0.14,0,0.27-0.08,0.34-0.21l2.55-5.11C21.25,21.24,21.17,21.01,20.98,20.92"/>
</svg>
