<?xml version="1.0" encoding="utf-8"?>
<!-- Generator: Adobe Illustrator 23.0.0, SVG Export Plug-In . SVG Version: 6.00 Build 0)  -->
<svg version="1.1" id="Layer_1" xmlns="http://www.w3.org/2000/svg" xmlns:xlink="http://www.w3.org/1999/xlink" x="0px" y="0px"
	 viewBox="0 0 30 30" style="enable-background:new 0 0 30 30;" xml:space="preserve">
<style type="text/css">
	.st0{fill:#357491;}
</style>
<path id="path214" class="st0" d="M8.88,19.6c0.03-0.05,0.04-0.11,0.04-0.16 M14.52,19.6c0.03-0.05,0.04-0.11,0.04-0.16"/>
<path id="path310" class="st0" d="M10.54,18.3h13.43c0.09,0,0.18,0,0.27,0.01V18.3c2.19,0,3.98-1.79,3.98-3.98
	c0-2.19-1.79-3.98-3.98-3.98c-0.31,0-0.63,0.04-0.96,0.12c-0.11,0.03-0.22,0.01-0.31-0.05c-0.09-0.06-0.15-0.16-0.17-0.27
	c-0.44-2.83-2.85-4.89-5.71-4.89c-3.19,0-5.79,2.6-5.79,5.79c0,0.16,0.01,0.31,0.02,0.47c0.01,0.12-0.03,0.23-0.12,0.31
	c-0.08,0.08-0.2,0.12-0.31,0.11c-0.12-0.01-0.23-0.02-0.35-0.02c-1.76,0-3.19,1.43-3.19,3.19C7.35,16.86,8.78,18.3,10.54,18.3
	 M10.52,11.13v-0.08c0-3.62,2.95-6.57,6.57-6.57c3.11,0,5.75,2.14,6.41,5.14c0.25-0.04,0.5-0.06,0.74-0.06
	c2.63,0,4.76,2.14,4.76,4.76s-2.13,4.76-4.76,4.76h-3.55H10.54c-2.19,0-3.97-1.78-3.97-3.97C6.57,12.92,8.34,11.14,10.52,11.13"/>
<path id="path314" class="st0" d="M5.76,6.93C6,6.93,6.25,6.95,6.5,6.99c0.66-3.01,3.29-5.15,6.41-5.15c1.36,0,2.66,0.41,3.76,1.19
	c0.18,0.12,0.22,0.37,0.1,0.54c-0.12,0.18-0.37,0.22-0.54,0.1c-0.97-0.68-2.12-1.04-3.32-1.04c-2.87,0-5.27,2.05-5.71,4.89
	c-0.02,0.11-0.08,0.2-0.17,0.26c-0.09,0.06-0.2,0.08-0.31,0.05C6.39,7.75,6.07,7.71,5.76,7.71c-2.19,0-3.98,1.79-3.98,3.98
	c0,2.05,1.53,3.75,3.56,3.96c0.21,0.02,0.37,0.21,0.35,0.43c-0.02,0.2-0.19,0.35-0.39,0.35c-0.01,0-0.03,0-0.04,0
	C2.83,16.17,1,14.13,1,11.69C1,9.06,3.13,6.93,5.76,6.93"/>
<path id="path790" class="st0" d="M9.36,22.81c0,0.72-0.58,1.3-1.3,1.3c-0.72,0-1.3-0.58-1.3-1.3c0-0.72,0.58-1.3,1.3-1.3
	C8.78,21.5,9.36,22.09,9.36,22.81"/>
<path id="path794" class="st0" d="M6.59,27.59c0,0.72-0.58,1.3-1.3,1.3c-0.72,0-1.3-0.58-1.3-1.3c0-0.72,0.58-1.3,1.3-1.3
	C6.01,26.29,6.59,26.88,6.59,27.59"/>
<path id="path798" class="st0" d="M16.61,22.81c0,0.72-0.58,1.3-1.3,1.3c-0.72,0-1.3-0.58-1.3-1.3c0-0.72,0.58-1.3,1.3-1.3
	C16.03,21.5,16.61,22.09,16.61,22.81"/>
<path id="path802" class="st0" d="M13.84,27.59c0,0.72-0.58,1.3-1.3,1.3c-0.72,0-1.3-0.58-1.3-1.3c0-0.72,0.58-1.3,1.3-1.3
	C13.26,26.29,13.84,26.88,13.84,27.59"/>
<path id="path806" class="st0" d="M23.8,22.81c0,0.72-0.58,1.3-1.3,1.3c-0.72,0-1.3-0.58-1.3-1.3c0-0.72,0.58-1.3,1.3-1.3
	C23.22,21.5,23.8,22.09,23.8,22.81"/>
<path id="path810" class="st0" d="M21.03,27.59c0,0.72-0.58,1.3-1.3,1.3c-0.72,0-1.3-0.58-1.3-1.3c0-0.72,0.58-1.3,1.3-1.3
	C20.45,26.29,21.03,26.88,21.03,27.59"/>
</svg>
