<?xml version="1.0" encoding="utf-8"?>
<!-- Generator: Adobe Illustrator 23.0.0, SVG Export Plug-In . SVG Version: 6.00 Build 0)  -->
<svg version="1.1" id="Layer_1" xmlns="http://www.w3.org/2000/svg" xmlns:xlink="http://www.w3.org/1999/xlink" x="0px" y="0px"
	 viewBox="0 0 30 30" style="enable-background:new 0 0 30 30;" xml:space="preserve">
<style type="text/css">
	.st0{fill:#357491;}
</style>
<path id="path530" class="st0" d="M10.56,20.36h13.45c0.09,0,0.18,0,0.27,0.01v-0.01c2.2,0,3.99-1.79,3.99-3.98
	s-1.79-3.99-3.99-3.99c-0.31,0-0.64,0.04-0.96,0.12c-0.11,0.03-0.22,0.01-0.31-0.05c-0.09-0.06-0.15-0.16-0.17-0.27
	c-0.44-2.84-2.85-4.89-5.72-4.89c-3.2,0-5.8,2.6-5.8,5.8c0,0.16,0.01,0.31,0.02,0.47c0.01,0.12-0.03,0.23-0.12,0.31
	c-0.08,0.08-0.2,0.12-0.31,0.11c-0.12-0.01-0.23-0.02-0.35-0.02c-1.76,0-3.2,1.43-3.2,3.2C7.36,18.92,8.8,20.36,10.56,20.36
	 M10.54,13.18c0-0.03,0-0.06,0-0.08c0-3.63,2.95-6.58,6.58-6.58c3.12,0,5.76,2.14,6.42,5.15c0.25-0.04,0.5-0.06,0.74-0.06
	c2.63,0,4.77,2.14,4.77,4.77c0,2.63-2.14,4.77-4.77,4.77h-3.56H10.56c-2.19,0-3.98-1.78-3.98-3.98
	C6.58,14.97,8.35,13.19,10.54,13.18"/>
<path id="path534" class="st0" d="M5.77,8.97c0.24,0,0.49,0.02,0.74,0.06c0.66-3.01,3.3-5.15,6.42-5.15c1.36,0,2.66,0.41,3.77,1.19
	c0.18,0.12,0.22,0.37,0.1,0.55c-0.12,0.18-0.37,0.22-0.55,0.1c-0.98-0.68-2.13-1.05-3.32-1.05c-2.87,0-5.28,2.06-5.72,4.89
	c-0.02,0.11-0.08,0.2-0.17,0.27C6.95,9.88,6.84,9.9,6.73,9.87C6.4,9.79,6.08,9.75,5.77,9.75c-2.2,0-3.99,1.79-3.99,3.98
	c0,2.05,1.54,3.75,3.57,3.96c0.21,0.02,0.37,0.21,0.35,0.43c-0.02,0.2-0.19,0.35-0.39,0.35c-0.01,0-0.03,0-0.04,0
	C2.84,18.23,1,16.19,1,13.74C1,11.11,3.14,8.97,5.77,8.97"/>
<path id="path3152" class="st0" d="M10.17,23.32c-0.21,0-0.38,0.17-0.38,0.38v0.58H9.21c-0.21,0-0.38,0.17-0.38,0.38
	c0,0.21,0.17,0.38,0.38,0.38H9.8l0,0.58c0,0.21,0.17,0.38,0.38,0.38c0.1,0,0.2-0.04,0.27-0.11c0.07-0.07,0.11-0.16,0.11-0.27l0-0.58
	l0.58,0c0.1,0,0.2-0.04,0.27-0.11c0.07-0.07,0.11-0.16,0.11-0.27c0-0.21-0.17-0.38-0.38-0.38l-0.58,0V23.7
	C10.55,23.49,10.38,23.33,10.17,23.32"/>
<path id="path3158" class="st0" d="M17.01,23.32c-0.21,0-0.38,0.17-0.38,0.38v0.58h-0.58c-0.21,0-0.38,0.17-0.38,0.38
	c0,0.21,0.17,0.38,0.38,0.38h0.58l0,0.58c0,0.21,0.17,0.38,0.38,0.38c0.1,0,0.2-0.04,0.27-0.11c0.07-0.07,0.11-0.16,0.11-0.27
	l0-0.58l0.58,0c0.1,0,0.2-0.04,0.27-0.11c0.07-0.07,0.11-0.16,0.11-0.27c0-0.21-0.17-0.38-0.38-0.38l-0.58,0V23.7
	C17.39,23.49,17.22,23.33,17.01,23.32"/>
<path id="path3160" class="st0" d="M23.84,23.32c-0.21,0-0.38,0.17-0.38,0.38v0.58h-0.58c-0.21,0-0.38,0.17-0.38,0.38
	c0,0.21,0.17,0.38,0.38,0.38h0.58l0,0.58c0,0.21,0.17,0.38,0.38,0.38c0.1,0,0.2-0.04,0.27-0.11c0.07-0.07,0.11-0.16,0.11-0.27
	l0-0.58l0.58,0c0.1,0,0.2-0.04,0.27-0.11c0.07-0.07,0.11-0.16,0.11-0.27c0-0.21-0.17-0.38-0.38-0.38l-0.58,0V23.7
	C24.22,23.49,24.05,23.33,23.84,23.32"/>
</svg>
